<svg version="1.1" id="Layer_1" xmlns:x="ns_extend;" xmlns:i="ns_ai;" xmlns:graph="ns_graphs;" xmlns="http://www.w3.org/2000/svg" xmlns:xlink="http://www.w3.org/1999/xlink" x="0px" y="0px" width="337.9" height="56" viewBox="0 0 337.9 56" style="enable-background:new 0 0 337.9 56;" xml:space="preserve">
 <metadata>
  <sfw xmlns="ns_sfw;">
   <slices>
   </slices>
   <sliceSourceBounds bottomLeftOrigin="true" height="56" width="337.9" x="1286.4" y="-163">
   </sliceSourceBounds>
  </sfw>
 </metadata>
 <g>
  <path d="M0,5.1c0-2.4,1.8-4,4.5-4h13.2c12,0,20.1,6.6,20.1,16.3c0,9.5-8.1,16.6-20.1,16.6h-1.8c-4.6,0-7,2.4-7,6.2V51
		c0,3.1-1.8,5-4.4,5S0,54.1,0,51V5.1z M8.9,18.9c0,4.8,2.4,7.1,7.1,7.1h1.1c6.6,0,11.4-2.7,11.4-8.6s-4.8-8.6-11.4-8.6H16
		c-4.7,0-7.1,2.3-7.1,7.1L8.9,18.9L8.9,18.9z M37.8,51.8c0,2.5,1.8,4.2,4.4,4.2c1.8,0,3.4-1.1,4.3-3.5l1.6-4.3
		c1.3-3.4,3.6-5.1,6.1-5.1h14.6c2.5,0,4.8,1.6,6.1,5.1l1.6,4.3c0.9,2.4,2.5,3.5,4.3,3.5c2.7,0,4.4-1.7,4.4-4.2
		c0-0.7-0.1-1.5-0.5-2.4L67.5,4.1C66.5,1.4,64,0,61.6,0c-2.4,0-4.8,1.4-5.9,4.1L38.3,49.4C38,50.2,37.8,51.1,37.8,51.8z M54.8,31.2
		c0-0.8,0.2-1.6,0.6-2.8l3.3-9.1c0.6-1.8,1.7-2.6,2.9-2.6s2.3,0.8,2.9,2.6l3.3,9.1c0.4,1.1,0.6,1.9,0.6,2.8c0,2.3-1.3,3.9-4.8,3.9
		h-4.1C56.1,35.1,54.8,33.5,54.8,31.2z M82.5,5.3c0-2.4,1.8-4.1,4.6-4.1h35.3c2.8,0,4.6,1.7,4.6,4.1s-1.8,4.1-4.6,4.1h-5.9
		c-4.7,0-7.2,2.4-7.2,7.8v33.7c0,3.1-1.8,5.1-4.5,5.1s-4.5-1.9-4.5-5.1V17.3c0-5.4-2.5-7.8-7.2-7.8h-5.9C84.2,9.4,82.5,7.7,82.5,5.3
		z M135.2,51c0,3.1,1.8,5,4.4,5c2.7,0,4.4-1.9,4.4-5V38.8c0-3.4,2-4.9,4.4-4.9h0.6c1.6,0,3.2,1,4.2,2.4L165,53.5
		c1.1,1.6,2.4,2.5,4.2,2.5c2.3,0,4.1-1.9,4.1-4.2c0-0.9-0.3-1.9-1-2.9L164.6,38c-0.9-1.3-1.3-2.4-1.3-3.3c0-1.9,1.7-3.3,3.7-4.8
		c3.6-2.7,7.5-6.2,7.5-13c0-9.4-7.4-15.8-19.5-15.8h-15.4c-2.8,0-4.4,1.6-4.4,4L135.2,51L135.2,51z M144.1,18.2v-2.3
		c0-5,2.6-7.1,6.6-7.1h3.8c6.6,0,10.8,2.4,10.8,8.1s-4.4,8.3-11.1,8.3h-3.6C146.7,25.2,144.1,23.2,144.1,18.2z M185.9,50.8V5.1
		c0-2.4,1.7-4,4.4-4h29c2.8,0,4.4,1.6,4.4,4s-1.7,4-4.4,4H201c-3.6,0-6.2,2.1-6.2,6.2V17c0,4.1,2.6,6.2,6.2,6.2h14.2
		c2.8,0,4.4,1.6,4.4,4s-1.7,4-4.4,4h-13.6c-3.6,0-6.8,2.2-6.8,6.8v2.1c0,4.5,3.1,6.8,6.8,6.8h17.8c2.8,0,4.4,1.6,4.4,4
		c0,2.4-1.7,4-4.4,4h-29C187.6,54.8,185.9,53.2,185.9,50.8z M229.1,28c0-16.6,12.4-28,27-28c14.6,0,27,11.4,27,28s-12.4,28-27,28
		S229.1,44.6,229.1,28z M239.2,28c0,11.6,6.9,19.1,16.9,19.1c10,0,16.9-7.4,16.9-19.1c0-11.7-6.9-19.1-16.9-19.1
		C246.1,8.9,239.2,16.3,239.2,28z M293.7,51c0,3.1,1.8,5,4.4,5c2.7,0,4.4-1.9,4.4-5V27.5c0-2.8,1.7-4.2,3.4-4.2
		c1.4,0,2.5,0.8,3.4,2.1l14.7,24.6c2,3.4,3.8,5.9,7.6,5.9c3.6,0,6.2-2.6,6.2-6.8V5c0-3.1-1.8-5-4.4-5c-2.7,0-4.4,1.9-4.4,5v23.5
		c0,2.8-1.7,4.2-3.4,4.2c-1.4,0-2.5-0.8-3.4-2.1L307.5,5.9c-2-3.4-3.8-5.9-7.6-5.9c-3.6,0-6.2,2.6-6.2,6.8V51z">
  </path>
 </g>
</svg>